<svg width="0" height="0"><symbol xmlns="http://www.w3.org/2000/svg" id="arrow" fill="none" viewBox="0 0 21 12"><path fill="currentColor" d="m9.416.326-9.09 9.09c-.21.21-.326.49-.326.79 0 .299.116.58.326.79l.67.67a1.119 1.119 0 0 0 1.58 0l7.633-7.634 7.641 7.642c.21.21.49.326.79.326.3 0 .58-.116.79-.326l.67-.67c.21-.21.326-.49.326-.79 0-.3-.116-.58-.326-.79L11.001.326A1.11 1.11 0 0 0 10.209 0c-.3 0-.582.115-.793.326Z"/></symbol><symbol xmlns="http://www.w3.org/2000/svg" id="cap" fill="none" viewBox="0 0 69 70"><path fill="currentColor" d="M3.816 14.306c-5.088 2.74-5.088 10.424 0 13.165l23.576 12.696a13.305 13.305 0 0 0 12.51.096L64.44 27.519c5.21-2.706 5.21-10.555 0-13.26L39.901 1.513a13.306 13.306 0 0 0-12.509.096L3.816 14.306Z"/><path fill="currentColor" d="M9.066 49.287v-11.08l18.613 9.73a13.305 13.305 0 0 0 12.393 0l17.915-9.365v10.715c0 2.394 0 3.591-.154 4.681-.61 4.296-2.977 8.09-6.472 10.374-.887.58-1.928 1.052-4.01 1.995-2.761 1.25-4.142 1.876-5.524 2.33a26.517 26.517 0 0 1-16.601 0c-1.382-.454-2.763-1.08-5.525-2.33-2.082-.944-3.122-1.415-4.01-1.995-3.494-2.284-5.861-6.078-6.47-10.374-.155-1.09-.155-2.287-.155-4.68Z"/></symbol><symbol xmlns="http://www.w3.org/2000/svg" id="check" fill="none" viewBox="0 0 14 12"><path fill="currentColor" d="M6.337 10.743a1.626 1.626 0 0 1-2.299 0L.476 7.18a1.626 1.626 0 0 1 2.3-2.3l2.121 2.123a.412.412 0 0 0 .581 0l5.747-5.747a1.626 1.626 0 0 1 2.299 2.3l-7.187 7.186Z"/></symbol><symbol xmlns="http://www.w3.org/2000/svg" id="cross" fill="none" viewBox="0 0 17 17"><path fill="currentColor" d="m11.04 8.5 4.434 4.434a1.796 1.796 0 1 1-2.54 2.54L8.5 11.039l-4.434 4.435a1.796 1.796 0 0 1-2.54-2.54L5.96 8.5 1.526 4.066a1.796 1.796 0 1 1 2.54-2.54L8.5 5.96l4.434-4.434c.35-.351.81-.526 1.27-.526a1.796 1.796 0 0 1 1.27 3.066L11.04 8.5Z"/></symbol><symbol xmlns="http://www.w3.org/2000/svg" id="crown" fill="none" viewBox="0 0 70 62"><path fill="currentColor" d="M.283 15.596c-.361-5.808-.542-8.711.505-10.32.91-1.399 2.372-2.294 3.981-2.438 1.85-.166 4.169 1.428 8.808 4.615l1.55 1.065c2.114 1.452 3.17 2.177 4.283 2.373a5.142 5.142 0 0 0 2.91-.337c1.045-.446 1.926-1.396 3.686-3.296l2.827-3.052C30.985 1.882 32.062.72 33.31.286a5.135 5.135 0 0 1 3.38 0c1.248.434 2.325 1.596 4.478 3.92l2.826 3.052c1.76 1.9 2.64 2.85 3.686 3.296.922.393 1.93.51 2.91.337 1.113-.196 2.17-.921 4.282-2.373l1.55-1.065c4.64-3.187 6.96-4.78 8.809-4.615 1.609.144 3.07 1.04 3.982 2.439 1.046 1.608.865 4.511.504 10.319L68.26 38.993c-.494 7.926-.74 11.889-2.368 14.894-1.433 2.646-3.597 4.774-6.206 6.102-2.964 1.51-6.747 1.51-14.315 1.51H24.629c-7.567 0-11.351 0-14.315-1.51-2.609-1.328-4.773-3.456-6.206-6.102-1.627-3.005-1.874-6.968-2.368-14.894L.283 15.596Z"/></symbol><symbol xmlns="http://www.w3.org/2000/svg" id="eye-closed" fill="none" viewBox="0 0 20 16"><path fill="currentColor" d="m12.483 8.168 1.136-1.135c.083.309.131.632.131.967A3.754 3.754 0 0 1 10 11.75a3.74 3.74 0 0 1-.968-.131l1.136-1.136a2.489 2.489 0 0 0 2.315-2.315Zm7.438-.472c-.077-.138-1.167-2.048-3.298-3.667l-.91.91A12.51 12.51 0 0 1 18.64 8c-.741 1.129-3.647 5-8.64 5a9.185 9.185 0 0 1-2.1-.248l-1.027 1.026c.944.29 1.982.472 3.127.472 6.543 0 9.786-5.704 9.921-5.946a.624.624 0 0 0 0-.608Zm-2.604-6.13-13.75 13.75a.623.623 0 0 1-1.02-.202.625.625 0 0 1 .136-.68l1.75-1.75C1.603 10.977.166 8.464.078 8.304a.625.625 0 0 1 0-.608C.214 7.454 3.457 1.75 10 1.75c1.692 0 3.157.386 4.41.957L16.433.683a.625.625 0 1 1 .884.884ZM5.365 11.753l1.582-1.583A3.725 3.725 0 0 1 6.25 8 3.754 3.754 0 0 1 10 4.25c.809 0 1.556.26 2.17.697l1.279-1.28A9.203 9.203 0 0 0 10 3C5.007 3 2.101 6.871 1.36 8c.47.712 1.823 2.516 4.005 3.752Zm2.49-2.49 3.407-3.408c-.372-.22-.8-.354-1.262-.354A2.503 2.503 0 0 0 7.5 8c0 .462.135.89.354 1.262Z"/></symbol><symbol xmlns="http://www.w3.org/2000/svg" id="eye" fill="none" viewBox="0 0 20 14"><path fill="currentColor" d="M19.865 7.412a.705.705 0 0 0-.02-.857C16.818 2.836 13.553.95 10.132.95 4.332.95.303 6.355.135 6.584a.705.705 0 0 0 .02.857c3.022 3.723 6.287 5.609 9.708 5.609 5.801 0 9.83-5.405 10.002-5.638ZM9.863 11.65c-2.85 0-5.625-1.568-8.262-4.654 1.033-1.22 4.315-4.646 8.532-4.646 2.849 0 5.625 1.568 8.262 4.654-1.033 1.22-4.315 4.646-8.532 4.646Z"/><path fill="currentColor" d="M9.998 3.444A3.561 3.561 0 0 0 6.442 7a3.561 3.561 0 0 0 3.556 3.556A3.561 3.561 0 0 0 13.554 7a3.561 3.561 0 0 0-3.556-3.556Zm0 5.711A2.159 2.159 0 0 1 7.843 7c0-1.188.967-2.155 2.155-2.155 1.188 0 2.155.967 2.155 2.155a2.159 2.159 0 0 1-2.155 2.155Z"/></symbol><symbol xmlns="http://www.w3.org/2000/svg" id="lightning" fill="none" viewBox="0 0 60 70"><path fill="currentColor" d="m41.1 31.175.06-.767 1.276-16.226c.528-6.701.79-10.052-.347-11.758C41.1.943 39.509.044 37.799.001c-1.971-.05-4.448 2.05-9.402 6.251L9.26 22.478C3.348 27.492.392 29.998.066 32.196c-.283 1.903.355 3.83 1.697 5.128 1.55 1.5 5.336 1.5 12.907 1.5h3.578l-.06.768-1.276 16.226c-.527 6.701-.79 10.052.348 11.758.988 1.481 2.579 2.38 4.29 2.423 1.97.05 4.448-2.05 9.401-6.251l19.137-16.226c5.912-5.013 8.868-7.52 9.194-9.718.283-1.903-.355-3.83-1.696-5.128-1.55-1.5-5.337-1.5-12.908-1.5H41.1Z"/></symbol><symbol xmlns="http://www.w3.org/2000/svg" id="logo-colored" fill="none" viewBox="0 0 64 50"><path fill="#fff" d="M18.276 16.01A70.331 70.331 0 0 1 2.546.39a.952.952 0 0 0-.363-.297.977.977 0 0 0-.918.049.945.945 0 0 0-.329.334c-2.85 4.92 1.416 12.08 4.664 16.399a30.132 30.132 0 0 1-3.3-2.94.98.98 0 0 0-1.332-.075.935.935 0 0 0-.275.392c-2.183 5.963 5.13 11.627 9.362 14.315a13.164 13.164 0 0 1-4.314-2.277.968.968 0 0 0-.936-.17.959.959 0 0 0-.407.271.927.927 0 0 0-.215.433c-1.172 5.791 7.258 9.62 7.616 9.78l.081.031c8.578 2.924 9.866 7.647 9.889 7.737a.93.93 0 0 0 .217.409.979.979 0 0 0 1.293.126c4.68-3.451 7.045-7.35 7.028-11.588-.03-7.497-7.551-14.063-12.031-17.309Zm4.84 26.64c-.974-1.886-3.636-5.392-10.555-7.763-.48-.223-5.623-2.676-6.458-6.054 1.816 1.113 4.872 2.497 7.554 1.384a.952.952 0 0 0 .413-.329.92.92 0 0 0-.342-1.359c-3.43-1.756-11.435-7.014-11.506-12.028 1.605 1.475 4.396 3.746 6.94 4.35.2.048.41.032.6-.046a.95.95 0 0 0 .452-.387.916.916 0 0 0-.123-1.11C7.284 16.345.936 8.15 2.05 2.864a71.275 71.275 0 0 0 15.086 14.648c4.193 3.038 11.234 9.133 11.26 15.818.013 3.32-1.761 6.452-5.279 9.322Zm40.039-28.398a.934.934 0 0 0-.275-.393.967.967 0 0 0-.923-.182.959.959 0 0 0-.409.257 28.365 28.365 0 0 1-3.288 2.923C61.508 12.536 65.758 5.39 62.91.475a.944.944 0 0 0-.33-.335.973.973 0 0 0-1.28.25 70.325 70.325 0 0 1-15.728 15.62c-4.48 3.246-12 9.812-12.03 17.312-.018 4.238 2.346 8.136 7.027 11.586a.974.974 0 0 0 .902.13.962.962 0 0 0 .39-.257.931.931 0 0 0 .217-.407c.012-.047 1.273-4.8 9.889-7.737.028-.01.055-.02.082-.032.36-.16 8.79-3.988 7.618-9.783a.925.925 0 0 0-.216-.432.979.979 0 0 0-1.343-.102 13.154 13.154 0 0 1-4.313 2.278c4.23-2.687 11.543-8.35 9.36-14.314ZM50.122 28.529a.948.948 0 0 0-.384.36.916.916 0 0 0 .042.999c.103.145.246.26.413.328 2.68 1.112 5.735-.27 7.552-1.382-.84 3.37-5.977 5.83-6.457 6.053-6.921 2.37-9.582 5.876-10.555 7.763-3.517-2.87-5.292-6.001-5.278-9.321.028-6.686 7.066-12.78 11.26-15.819A71.242 71.242 0 0 0 61.8 2.86c1.113 5.286-5.235 13.483-8.042 16.446a.916.916 0 0 0-.123 1.109.95.95 0 0 0 .453.387c.19.078.4.094.6.047 2.55-.606 5.35-2.887 6.952-4.363.005 6.054-11.393 11.979-11.52 12.043Z"/><circle cx="31.86" cy="32.084" r="11.851" fill="#fff" stroke="#fff" stroke-width="12"/><g clip-path="url(#a)"><mask id="b" width="22" height="22" x="21" y="21" maskUnits="userSpaceOnUse"><path fill="#fff" d="M21.023 21.246h21.675V42.92H21.023V21.246Z"/></mask><g mask="url(#b)"><path fill="#4268B1" d="M32.447 35.398a.886.886 0 0 0-.207-.948l-1.888-1.86.027-.028a15.824 15.824 0 0 0 3.35-5.897h1.753a.902.902 0 0 0 .894-.895v-.018a.902.902 0 0 0-.894-.894h-5.428v-.903a.906.906 0 0 0-.903-.903.906.906 0 0 0-.903.903v.903H22.82a.902.902 0 0 0-.894.894c0 .497.406.895.894.895h9.194a14.144 14.144 0 0 1-2.863 4.85 13.98 13.98 0 0 1-1.86-2.602.798.798 0 0 0-.705-.424.82.82 0 0 0-.714 1.22 15.954 15.954 0 0 0 2.078 2.898l-3.947 3.893a.894.894 0 0 0 0 1.282.91.91 0 0 0 1.282 0l3.866-3.874 1.824 1.824a.897.897 0 0 0 1.472-.316Zm4.38-5.12c-.541 0-1.029.333-1.218.848l-3.315 8.851a.837.837 0 0 0 .786 1.138.849.849 0 0 0 .794-.55l.804-2.16h4.29l.813 2.16c.127.324.443.55.795.55a.845.845 0 0 0 .795-1.138l-3.315-8.85a1.317 1.317 0 0 0-1.228-.85Zm-1.462 6.321 1.463-3.91 1.463 3.91h-2.926Z"/></g></g><defs><clipPath id="a"><path fill="#fff" d="M21.023 21.246h21.675v21.676H21.023z"/></clipPath></defs></symbol></svg>