<svg width="0" height="0"><symbol xmlns="http://www.w3.org/2000/svg" id="logo-colored" fill="none" viewBox="0 0 70 70"><path fill="#fff" d="M21.352 28.303a71.189 71.189 0 0 1-15.73-15.998.957.957 0 0 0-1.61.088c-2.85 5.04 1.416 12.372 4.664 16.796a30.385 30.385 0 0 1-3.3-3.012.957.957 0 0 0-1.607.325c-2.183 6.108 5.13 11.91 9.362 14.662a13.06 13.06 0 0 1-4.314-2.333.957.957 0 0 0-1.558.547c-1.172 5.932 7.258 9.853 7.616 10.017.027.012.055.023.082.033 8.577 2.994 9.865 7.832 9.888 7.924a.958.958 0 0 0 1.51.547c4.68-3.534 7.045-7.527 7.028-11.867-.03-7.68-7.551-14.404-12.031-17.728Zm4.84 27.286c-.974-1.933-3.636-5.524-10.555-7.952-.48-.228-5.623-2.74-6.458-6.2 1.816 1.139 4.872 2.556 7.554 1.417a.957.957 0 0 0 .07-1.728c-3.43-1.8-11.434-7.184-11.505-12.32 1.605 1.51 4.396 3.837 6.94 4.455a.958.958 0 0 0 .93-1.58c-2.808-3.036-9.156-11.43-8.043-16.843A72.085 72.085 0 0 0 20.21 29.84c4.193 3.112 11.234 9.354 11.26 16.201.013 3.4-1.762 6.608-5.279 9.548Zm40.039-29.087a.957.957 0 0 0-1.607-.325 28.611 28.611 0 0 1-3.288 2.994c3.248-4.426 7.498-11.746 4.649-16.78a.958.958 0 0 0-1.61-.087 71.188 71.188 0 0 1-15.727 16c-4.48 3.324-12 10.049-12.03 17.73-.018 4.34 2.346 8.334 7.028 11.867a.96.96 0 0 0 1.508-.547c.012-.049 1.273-4.916 9.889-7.925.028-.01.055-.02.082-.032.36-.165 8.79-4.085 7.618-10.02a.958.958 0 0 0-1.559-.547 13.055 13.055 0 0 1-4.313 2.333c4.23-2.752 11.543-8.553 9.36-14.66ZM53.198 41.125a.958.958 0 0 0 .07 1.728c2.68 1.14 5.736-.277 7.553-1.415-.84 3.45-5.977 5.97-6.457 6.199-6.921 2.428-9.582 6.019-10.555 7.951-3.517-2.94-5.292-6.147-5.278-9.547.028-6.847 7.066-13.09 11.26-16.201a72.053 72.053 0 0 0 15.086-15.005c1.113 5.414-5.235 13.81-8.042 16.844a.957.957 0 0 0 .93 1.58c2.55-.62 5.35-2.957 6.952-4.468.005 6.2-11.393 12.268-11.52 12.334Z"/><circle cx="34.936" cy="43.989" r="11.851" fill="#fff" stroke="#fff" stroke-width="12"/><g clip-path="url(#a)"><mask id="b" width="22" height="22" x="24" y="33" maskUnits="userSpaceOnUse"><path fill="#fff" d="M24.099 33.151h21.675v21.676H24.1V33.15Z"/></mask><g mask="url(#b)"><path fill="#4268B1" d="M35.523 47.304a.886.886 0 0 0-.207-.949l-1.888-1.86.027-.027a15.821 15.821 0 0 0 3.35-5.898h1.753a.902.902 0 0 0 .894-.894v-.018a.902.902 0 0 0-.894-.894H33.13v-.903a.906.906 0 0 0-.903-.903.906.906 0 0 0-.903.903v.903h-5.428a.902.902 0 0 0-.894.894c0 .497.406.894.894.894h9.194a14.141 14.141 0 0 1-2.863 4.85 13.985 13.985 0 0 1-1.86-2.601.799.799 0 0 0-.705-.425.82.82 0 0 0-.713 1.22 15.954 15.954 0 0 0 2.077 2.899l-3.947 3.892a.894.894 0 0 0 0 1.283.91.91 0 0 0 1.282 0l3.866-3.875 1.824 1.825a.897.897 0 0 0 1.472-.316Zm4.38-5.121c-.541 0-1.029.334-1.218.849l-3.315 8.85a.837.837 0 0 0 .786 1.139.848.848 0 0 0 .794-.551l.804-2.159h4.29l.813 2.159c.127.325.443.55.795.55a.845.845 0 0 0 .795-1.137l-3.315-8.851a1.317 1.317 0 0 0-1.228-.85Zm-1.462 6.322 1.463-3.91 1.463 3.91H38.44Z"/></g></g><defs><clipPath id="a"><path fill="#fff" d="M24.099 33.151h21.676v21.676H24.099z"/></clipPath></defs></symbol></svg>