<svg width="69" height="70" viewBox="0 0 69 70" fill="none" xmlns="http://www.w3.org/2000/svg">
<path d="M3.8162 14.3062C-1.27207 17.0463 -1.27207 24.7304 3.8162 27.4708L27.392 40.1667C31.3148 42.2793 35.9497 42.3147 39.9011 40.2626L64.44 27.5187C69.6491 24.8133 69.6491 16.9636 64.44 14.2582L39.9011 1.51413C35.9497 -0.53795 31.3148 -0.502407 27.392 1.61006L3.8162 14.3062Z" fill="white"/>
<path d="M9.06552 49.2874V38.2062L27.6792 47.9369C31.5845 49.9783 36.167 49.9783 40.0722 47.9369L57.9873 38.5716V49.2874C57.9873 51.6814 57.9873 52.8782 57.8326 53.9683C57.2228 58.2638 54.8559 62.0579 51.3608 64.3422C50.4739 64.922 49.4332 65.3935 47.3518 66.3365C44.5897 67.5875 43.2085 68.2133 41.8269 68.6674C36.4209 70.4442 30.6318 70.4442 25.2259 68.6674C23.8442 68.2133 22.4633 67.5875 19.7012 66.3365C17.6195 65.3935 16.5787 64.922 15.6919 64.3422C12.1969 62.0579 9.82988 58.2638 9.22023 53.9683C9.06552 52.8782 9.06552 51.6814 9.06552 49.2874Z" fill="white"/>
</svg>
