<svg width="14" height="12" viewBox="0 0 14 12" fill="none" xmlns="http://www.w3.org/2000/svg">
<path d="M6.33724 10.7428C6.03231 11.0475 5.61883 11.2188 5.1877 11.2188C4.75657 11.2188 4.34308 11.0475 4.03816 10.7428L0.476051 7.18065C0.325112 7.02969 0.205384 6.85048 0.123704 6.65325C0.0420243 6.45602 -8.49586e-06 6.24463 5.72565e-06 6.03116C1.99472e-05 5.81768 0.042081 5.6063 0.123787 5.40908C0.205494 5.21186 0.325245 5.03267 0.476204 4.88173C0.627164 4.73079 0.806375 4.61106 1.0036 4.52938C1.20084 4.4477 1.41222 4.40567 1.6257 4.40568C1.83917 4.4057 2.05055 4.44776 2.24777 4.52946C2.44499 4.61117 2.62419 4.73092 2.77513 4.88188L4.89744 7.00389C4.9746 7.08067 5.07901 7.12376 5.18785 7.12376C5.29669 7.12376 5.40111 7.08067 5.47826 7.00389L11.2249 1.25728C11.5321 0.964338 11.9418 0.803174 12.3663 0.808221C12.7907 0.813267 13.1964 0.984124 13.4966 1.28429C13.7968 1.58445 13.9678 1.99011 13.9729 2.41461C13.978 2.8391 13.8168 3.24875 13.5239 3.55605L6.33724 10.7428Z" fill="white"/>
</svg>
