<svg width="17" height="17" viewBox="0 0 17 17" fill="none" xmlns="http://www.w3.org/2000/svg">
<path d="M11.0397 8.49995L15.4737 12.9336C15.644 13.0996 15.7796 13.2977 15.8727 13.5165C15.9658 13.7353 16.0145 13.9704 16.016 14.2082C16.0176 14.446 15.9719 14.6817 15.8816 14.9017C15.7913 15.1217 15.6582 15.3215 15.4901 15.4897C15.322 15.6579 15.1221 15.7909 14.9021 15.8813C14.6822 15.9716 14.4465 16.0173 14.2087 16.0158C13.9709 16.0143 13.7358 15.9657 13.5169 15.8726C13.2981 15.7795 13.1 15.6439 12.934 15.4737L8.49998 11.0394L4.06601 15.4737C3.72772 15.8035 3.27314 15.9867 2.80072 15.9836C2.3283 15.9806 1.8761 15.7916 1.54207 15.4575C1.20804 15.1234 1.01907 14.6712 1.01611 14.1988C1.01315 13.7264 1.19644 13.2718 1.52625 12.9336L5.95987 8.49995L1.52625 4.06634C1.35598 3.90035 1.22037 3.70221 1.12727 3.4834C1.03417 3.2646 0.985447 3.02948 0.983924 2.7917C0.9824 2.55391 1.02811 2.31819 1.11839 2.09821C1.20868 1.87823 1.34175 1.67836 1.50988 1.51021C1.67801 1.34206 1.87785 1.20896 2.09782 1.11864C2.31779 1.02833 2.55351 0.982586 2.79129 0.984076C3.02907 0.985566 3.2642 1.03426 3.48302 1.12732C3.70184 1.22039 3.9 1.35598 4.06601 1.52623L8.49998 5.95984L12.934 1.52587C13.2846 1.1749 13.7444 0.999954 14.2038 0.999954C14.6633 0.999954 15.1235 1.1749 15.4737 1.52587C15.8105 1.86271 15.9998 2.31956 15.9998 2.79592C15.9998 3.27229 15.8105 3.72914 15.4737 4.06598L11.0397 8.49995Z" fill="white"/>
</svg>
