<svg width="70" height="62" viewBox="0 0 70 62" fill="none" xmlns="http://www.w3.org/2000/svg">
<path d="M0.283182 15.5959C-0.0784688 9.78837 -0.259294 6.88458 0.787542 5.27656C1.6985 3.87727 3.16045 2.98181 4.7693 2.83772C6.61812 2.67214 8.93791 4.26582 13.5775 7.45319L15.1277 8.51818C17.2406 9.96973 18.297 10.6955 19.4097 10.891C20.3911 11.0634 21.3986 10.9466 22.3203 10.5538C23.3654 10.1082 24.2457 9.158 26.0059 7.25764L28.8326 4.20609C30.9855 1.88197 32.0618 0.71989 33.3099 0.286083C34.4074 -0.0953609 35.5928 -0.0953609 36.6901 0.286083C37.9381 0.71989 39.0147 1.88197 41.1676 4.20609L43.9941 7.25764C45.7545 9.158 46.6345 10.1082 47.6799 10.5538C48.6017 10.9466 49.6091 11.0634 50.5903 10.891C51.7031 10.6955 52.7595 9.96973 54.8724 8.51818L56.4226 7.45322C61.0621 4.26582 63.3819 2.67214 65.2308 2.83772C66.8396 2.98181 68.3016 3.87727 69.2126 5.27656C70.2593 6.88458 70.0784 9.78837 69.7169 15.5959L68.2599 38.9929C67.7664 46.9189 67.5196 50.882 65.8918 53.8873C64.4588 56.5334 62.2949 58.661 59.6859 59.9892C56.7223 61.4981 52.9386 61.4981 45.3706 61.4981H24.6293C17.0616 61.4981 13.2777 61.4981 10.3143 59.9892C7.70528 58.661 5.54142 56.5334 4.10831 53.8873C2.48051 50.882 2.23374 46.9189 1.74016 38.9929L0.283182 15.5959Z" fill="white"/>
</svg>
