<svg width="384" height="470" viewBox="0 0 384 470" fill="none" xmlns="http://www.w3.org/2000/svg">
<path d="M341.333 128.333C335.675 128.333 330.249 130.581 326.248 134.582C322.248 138.583 320 144.009 320 149.667V388.408C319.388 399.196 314.538 409.305 306.507 416.534C298.475 423.762 287.913 427.524 277.12 427H106.88C96.0874 427.524 85.525 423.762 77.4935 416.534C69.4619 409.305 64.612 399.196 64 388.408V149.667C64 144.009 61.7524 138.583 57.7516 134.582C53.7508 130.581 48.3246 128.333 42.6667 128.333C37.0087 128.333 31.5825 130.581 27.5817 134.582C23.581 138.583 21.3333 144.009 21.3333 149.667V388.408C21.9423 410.514 31.2871 431.478 47.3212 446.709C63.3553 461.939 84.7717 470.194 106.88 469.667H277.12C299.228 470.194 320.645 461.939 336.679 446.709C352.713 431.478 362.058 410.514 362.667 388.408V149.667C362.667 144.009 360.419 138.583 356.418 134.582C352.418 130.581 346.991 128.333 341.333 128.333ZM362.667 64.3334H277.333V21.6667C277.333 16.0088 275.086 10.5825 271.085 6.58176C267.084 2.58099 261.658 0.333374 256 0.333374H128C122.342 0.333374 116.916 2.58099 112.915 6.58176C108.914 10.5825 106.667 16.0088 106.667 21.6667V64.3334H21.3333C15.6754 64.3334 10.2492 66.581 6.24839 70.5818C2.24761 74.5825 0 80.0088 0 85.6667C0 91.3247 2.24761 96.7509 6.24839 100.752C10.2492 104.752 15.6754 107 21.3333 107H362.667C368.325 107 373.751 104.752 377.752 100.752C381.752 96.7509 384 91.3247 384 85.6667C384 80.0088 381.752 74.5825 377.752 70.5818C373.751 66.581 368.325 64.3334 362.667 64.3334ZM149.333 64.3334V43H234.667V64.3334H149.333Z" fill="black"/>
<path d="M170.667 341.667V192.333C170.667 186.675 168.419 181.249 164.418 177.248C160.417 173.248 154.991 171 149.333 171C143.675 171 138.249 173.248 134.248 177.248C130.248 181.249 128 186.675 128 192.333V341.667C128 347.325 130.248 352.751 134.248 356.752C138.249 360.752 143.675 363 149.333 363C154.991 363 160.417 360.752 164.418 356.752C168.419 352.751 170.667 347.325 170.667 341.667ZM256 341.667V192.333C256 186.675 253.752 181.249 249.752 177.248C245.751 173.248 240.325 171 234.667 171C229.009 171 223.583 173.248 219.582 177.248C215.581 181.249 213.333 186.675 213.333 192.333V341.667C213.333 347.325 215.581 352.751 219.582 356.752C223.583 360.752 229.009 363 234.667 363C240.325 363 245.751 360.752 249.752 356.752C253.752 352.751 256 347.325 256 341.667Z" fill="black"/>
</svg>
