<svg width="20" height="14" viewBox="0 0 20 14" fill="none" xmlns="http://www.w3.org/2000/svg">
<path d="M19.8646 7.41228C20.0524 7.15511 20.0442 6.80404 19.8442 6.55503C16.8193 2.83616 13.5535 0.950195 10.1327 0.950195C4.3319 0.950195 0.302789 6.355 0.135419 6.5836C-0.0523607 6.84078 -0.0441963 7.19184 0.15583 7.44086C3.17664 11.1638 6.44238 13.0498 9.86325 13.0498C15.664 13.0498 19.6931 7.64497 19.8646 7.41228ZM9.86325 11.6496C7.01389 11.6496 4.23801 10.082 1.60092 6.9959C2.63371 5.77533 5.91578 2.35038 10.1327 2.35038C12.982 2.35038 15.7579 3.91794 18.395 7.00406C17.3622 8.22464 14.0801 11.6496 9.86325 11.6496Z" fill="#4268B1"/>
<path d="M9.99796 3.44434C8.03851 3.44434 6.44238 5.04047 6.44238 6.99991C6.44238 8.95936 8.03851 10.5555 9.99796 10.5555C11.9574 10.5555 13.5535 8.95936 13.5535 6.99991C13.5535 5.04047 11.9574 3.44434 9.99796 3.44434ZM9.99796 9.1553C8.81005 9.1553 7.84257 8.18783 7.84257 6.99991C7.84257 5.812 8.81005 4.84452 9.99796 4.84452C11.1859 4.84452 12.1533 5.812 12.1533 6.99991C12.1533 8.18783 11.1859 9.1553 9.99796 9.1553Z" fill="#4268B1"/>
</svg>
