<svg width="60" height="70" viewBox="0 0 60 70" fill="none" xmlns="http://www.w3.org/2000/svg">
<path d="M41.1002 31.1754C41.1197 30.931 41.1399 30.6755 41.1608 30.4078L42.4364 14.1817C42.9635 7.48062 43.2269 4.13008 42.0885 2.42396C41.1006 0.94273 39.5097 0.0441611 37.7986 0.000867611C35.8278 -0.049004 33.3507 2.05134 28.3968 6.25195L9.26054 22.4782C3.3482 27.4916 0.391986 29.9982 0.0657956 32.1965C-0.216518 34.0992 0.420852 36.0252 1.76274 37.324C3.31309 38.8244 7.09885 38.8244 14.6704 38.8244H18.2482C18.2287 39.0688 18.2086 39.3243 18.1875 39.592L16.9118 55.8182C16.3849 62.5192 16.1215 65.8698 17.2596 67.5759C18.2478 69.0572 19.8388 69.9559 21.5498 69.9991C23.5206 70.0489 25.9977 67.9484 30.9515 63.748L50.0878 47.5217C56 42.5086 58.9562 40.0016 59.2824 37.8036C59.565 35.9009 58.9274 33.9749 57.5855 32.6761C56.0353 31.1754 52.2495 31.1754 44.6778 31.1754H41.1002Z" fill="white"/>
</svg>
