<svg width="64" height="50" viewBox="0 0 64 50" fill="none" xmlns="http://www.w3.org/2000/svg">
<path d="M18.2756 16.0104C12.2199 11.648 6.91087 6.37564 2.54638 0.389737C2.45257 0.262441 2.32745 0.160244 2.18256 0.0925641C2.03767 0.0248843 1.87766 -0.00610185 1.71728 0.00246166C1.5569 0.0110252 1.40131 0.0588627 1.26484 0.141566C1.12837 0.224269 1.01541 0.339177 0.93638 0.475703C-1.91393 5.39605 2.35169 12.5558 5.60013 16.8749C4.42759 15.9752 3.32448 14.9923 2.29974 13.9344C2.18821 13.8159 2.04723 13.7275 1.89043 13.6777C1.73364 13.628 1.56634 13.6186 1.40474 13.6505C1.24315 13.6824 1.09272 13.7545 0.968035 13.8598C0.843347 13.9651 0.748618 14.1001 0.69302 14.2516C-1.4901 20.2153 5.82216 25.8794 10.055 28.5668C8.48269 28.0804 7.01898 27.3077 5.74122 26.2895C5.61383 26.1842 5.46044 26.1132 5.29627 26.0836C5.13211 26.054 4.96287 26.0668 4.80535 26.1208C4.64782 26.1747 4.50748 26.268 4.39825 26.3912C4.28902 26.5145 4.21469 26.6635 4.18263 26.8235C3.01068 32.6152 11.4413 36.4436 11.799 36.6033C11.8258 36.615 11.8536 36.6257 11.8804 36.6353C20.4576 39.5592 21.7461 44.282 21.769 44.3723C21.8054 44.5238 21.8799 44.6641 21.9858 44.7805C22.0917 44.8968 22.2257 44.9855 22.3756 45.0385C22.5254 45.0916 22.6865 45.1072 22.8442 45.0841C23.0018 45.061 23.1511 44.9999 23.2784 44.9062C27.9597 41.4558 30.3244 37.5575 30.3069 33.3195C30.2768 25.8223 22.7556 19.2563 18.2756 16.0104ZM23.116 42.6508C22.142 40.7638 19.4804 37.2579 12.5613 34.8866C12.0801 34.664 6.93779 32.211 6.10271 28.8332C7.91888 29.9455 10.9754 31.3295 13.6567 30.2167C13.8234 30.1476 13.9667 30.0337 14.0697 29.8882C14.1728 29.7428 14.2314 29.5717 14.2389 29.395C14.2463 29.2183 14.2023 29.0432 14.1118 28.8899C14.0213 28.7367 13.8881 28.6117 13.7278 28.5294C10.2978 26.7727 2.29263 21.5155 2.22154 16.5006C3.82661 17.9759 6.61841 20.2473 9.16138 20.8512C9.36124 20.899 9.57155 20.8826 9.76112 20.8045C9.95069 20.7264 10.1094 20.5907 10.2138 20.4175C10.3181 20.2444 10.3626 20.043 10.3404 19.8432C10.3183 19.6435 10.2309 19.456 10.0911 19.3087C7.28396 16.3436 0.93638 8.1491 2.04872 2.86299C6.3077 8.44728 11.3918 13.3836 17.1348 17.5108C21.3277 20.549 28.3693 26.6441 28.3944 33.3291C28.4081 36.6492 26.6335 39.7808 23.116 42.6508ZM63.1549 14.2516C63.0994 14.1 63.0048 13.9649 62.8801 13.8595C62.7554 13.7541 62.6049 13.6819 62.4433 13.65C62.2816 13.6181 62.1143 13.6275 61.9574 13.6774C61.8006 13.7272 61.6596 13.8157 61.5482 13.9344C60.5316 14.9906 59.4323 15.9678 58.2604 16.8573C61.5077 12.536 65.758 5.38911 62.9088 0.474636C62.8298 0.33811 62.7168 0.223202 62.5803 0.140498C62.4439 0.0577953 62.2883 0.00995786 62.1279 0.00139434C61.9675 -0.00716917 61.8075 0.0238159 61.6626 0.0914957C61.5177 0.159176 61.3926 0.261372 61.2988 0.388669C56.9353 6.3748 51.6272 11.6475 45.5723 16.0104C41.0923 19.2563 33.5711 25.8223 33.5411 33.3216C33.5236 37.5601 35.8883 41.4585 40.5695 44.9083C40.6971 45.001 40.8462 45.0614 41.0036 45.084C41.1609 45.1066 41.3216 45.0907 41.4711 45.0378C41.6206 44.9849 41.7544 44.8966 41.8603 44.7808C41.9663 44.665 42.0412 44.5254 42.0783 44.3744C42.0904 44.3269 43.3509 39.5747 51.9669 36.6369C51.9946 36.6273 52.022 36.6166 52.049 36.6049C52.4083 36.4447 60.8389 32.6168 59.6669 26.8224C59.6349 26.6624 59.5605 26.5134 59.4513 26.3902C59.3421 26.2669 59.2017 26.1737 59.0442 26.1197C58.8867 26.0657 58.7175 26.0529 58.5533 26.0825C58.3891 26.1121 58.2357 26.1831 58.1083 26.2884C56.8307 27.3068 55.3669 28.0795 53.7946 28.5657C58.0252 25.8794 65.338 20.2153 63.1549 14.2516ZM50.1218 28.5289C49.9614 28.6112 49.8283 28.7362 49.7378 28.8894C49.6473 29.0426 49.6032 29.2178 49.6107 29.3945C49.6181 29.5712 49.6768 29.7422 49.7798 29.8877C49.8829 30.0331 50.0261 30.1471 50.1929 30.2162C52.8726 31.3284 55.9279 29.9455 57.7447 28.8343C56.9052 32.2035 51.7684 34.6634 51.2877 34.8866C44.3665 37.2574 41.7059 40.7633 40.733 42.6503C37.2155 39.7803 35.4409 36.6487 35.4546 33.3286C35.4825 26.6435 42.5213 20.5485 46.7142 17.5103C52.4581 13.3829 57.5426 8.44574 61.8014 2.86032C62.9137 8.14643 56.5662 16.3431 53.759 19.306C53.6192 19.4534 53.5318 19.6408 53.5097 19.8406C53.4876 20.0403 53.532 20.2417 53.6363 20.4148C53.7407 20.588 53.8994 20.7237 54.089 20.8018C54.2786 20.8799 54.4889 20.8963 54.6887 20.8486C57.2388 20.2431 60.0383 17.9615 61.6411 16.4862C61.6455 22.5401 50.2476 28.4648 50.1218 28.5289Z" fill="white"/>
<circle cx="31.8602" cy="32.0835" r="11.8506" fill="white" stroke="white" stroke-width="12"/>
<g clip-path="url(#clip0_113_1314)">
<mask id="mask0_113_1314" style="mask-type:luminance" maskUnits="userSpaceOnUse" x="21" y="21" width="22" height="22">
<path d="M21.0225 21.2456H42.6982V42.9214H21.0225V21.2456Z" fill="white"/>
</mask>
<g mask="url(#mask0_113_1314)">
<path d="M32.4474 35.3981C32.5739 35.073 32.4926 34.7027 32.2397 34.4498L30.3521 32.5893L30.3792 32.5622C31.9093 30.8616 33.0524 28.8495 33.7299 26.6646H35.482C35.9697 26.6646 36.3761 26.2582 36.3761 25.7705V25.7524C36.3761 25.2647 35.9697 24.8583 35.482 24.8583H30.054V23.9551C30.054 23.4584 29.6476 23.052 29.1509 23.052C28.6542 23.052 28.2477 23.4584 28.2477 23.9551V24.8583H22.8198C22.332 24.8583 21.9256 25.2647 21.9256 25.7524C21.9256 26.2491 22.332 26.6465 22.8198 26.6465H32.0139C31.3943 28.4388 30.4207 30.0881 29.1509 31.4965C28.4193 30.6927 27.8052 29.8166 27.2904 28.8954C27.2225 28.7674 27.121 28.6603 26.9969 28.5856C26.8729 28.5108 26.7308 28.4712 26.5859 28.4709C25.9627 28.4709 25.5654 29.1483 25.8724 29.6902C26.4414 30.7107 27.1368 31.6861 27.9497 32.5893L24.0029 36.4819C23.9171 36.5652 23.849 36.6649 23.8024 36.7751C23.7559 36.8852 23.7319 37.0036 23.7319 37.1231C23.7319 37.2427 23.7559 37.3611 23.8024 37.4712C23.849 37.5814 23.9171 37.6811 24.0029 37.7644C24.3551 38.1166 24.9241 38.1166 25.2854 37.7644L29.1509 33.8898L30.9753 35.7142C31.4359 36.1748 32.2216 36.0032 32.4474 35.3981ZM36.8277 30.2772C36.2858 30.2772 35.7981 30.6114 35.6085 31.1262L32.2939 39.9771C32.0771 40.528 32.4926 41.1151 33.0796 41.1151C33.4319 41.1151 33.748 40.8983 33.8744 40.5642L34.6782 38.4056H38.9682L39.781 40.5642C39.9075 40.8893 40.2236 41.1151 40.5758 41.1151C41.1629 41.1151 41.5783 40.528 41.3706 39.9771L38.056 31.1262C37.8573 30.6114 37.3696 30.2772 36.8277 30.2772ZM35.3646 36.5993L36.8277 32.6886L38.2908 36.5993H35.3646Z" fill="#4268B1"/>
</g>
</g>
<defs>
<clipPath id="clip0_113_1314">
<rect width="21.6758" height="21.6758" fill="white" transform="translate(21.0225 21.2456)"/>
</clipPath>
</defs>
</svg>
