<svg width="501" height="391" viewBox="0 0 501 391" fill="none" xmlns="http://www.w3.org/2000/svg">
<g clip-path="url(#clip0_2091_1197)">
<path d="M250 385C324.006 385 384 325.006 384 251C384 176.994 324.006 117 250 117C175.994 117 116 176.994 116 251C116 325.006 175.994 385 250 385Z" stroke="#FF6B6B" stroke-width="12"/>
<mask id="mask0_2091_1197" style="mask-type:luminance" maskUnits="userSpaceOnUse" x="165" y="165" width="170" height="170">
<path d="M165 165H335V335H165V165Z" fill="white"/>
</mask>
<g mask="url(#mask0_2091_1197)">
<path d="M254.604 275.996C255.596 273.446 254.958 270.542 252.975 268.558L238.171 253.967L238.383 253.754C250.384 240.417 259.349 224.636 264.662 207.5H278.404C282.229 207.5 285.417 204.312 285.417 200.487V200.346C285.417 196.521 282.229 193.333 278.404 193.333H235.833V186.25C235.833 182.354 232.646 179.167 228.75 179.167C224.854 179.167 221.667 182.354 221.667 186.25V193.333H179.096C175.271 193.333 172.083 196.521 172.083 200.346C172.083 204.242 175.271 207.358 179.096 207.358H251.204C246.345 221.415 238.709 234.35 228.75 245.396C223.012 239.092 218.196 232.221 214.158 224.996C213.626 223.992 212.83 223.152 211.857 222.566C210.884 221.98 209.769 221.669 208.633 221.667C203.746 221.667 200.629 226.979 203.037 231.229C207.5 239.233 212.954 246.883 219.329 253.967L188.375 284.496C187.702 285.149 187.168 285.931 186.803 286.795C186.438 287.659 186.249 288.587 186.249 289.525C186.249 290.463 186.438 291.391 186.803 292.255C187.168 293.119 187.702 293.901 188.375 294.554C191.137 297.317 195.6 297.317 198.433 294.554L228.75 264.167L243.058 278.475C246.671 282.088 252.833 280.742 254.604 275.996ZM288.958 235.833C284.708 235.833 280.883 238.454 279.396 242.492L253.4 311.908C251.7 316.229 254.958 320.833 259.562 320.833C262.325 320.833 264.804 319.133 265.796 316.513L272.1 299.583H305.746L312.121 316.513C313.112 319.062 315.592 320.833 318.354 320.833C322.958 320.833 326.217 316.229 324.587 311.908L298.592 242.492C297.033 238.454 293.208 235.833 288.958 235.833ZM277.483 285.417L288.958 254.746L300.433 285.417H277.483Z" fill="#FF6B6B"/>
</g>
<path fill-rule="evenodd" clip-rule="evenodd" d="M19.9709 3.13065C54.2009 51.2136 95.8386 93.565 143.333 128.607C149.001 132.813 155.29 137.714 161.853 143.228C157.928 146.413 154.178 149.806 150.621 153.39C144.876 148.628 139.374 144.361 134.386 140.659C89.3439 107.507 49.4704 67.8545 16.0678 22.9976C7.34389 65.4593 57.127 131.284 79.1428 155.101C80.2394 156.285 80.9253 157.791 81.0986 159.395C81.272 160.999 80.9236 162.617 80.1052 164.008C79.2868 165.399 78.0419 166.489 76.5551 167.116C75.0683 167.744 73.4189 167.876 71.8514 167.492C51.9073 162.641 30.0116 144.395 17.4232 132.545C17.9808 172.827 80.7641 215.058 107.665 229.169C108.923 229.829 109.967 230.834 110.677 232.064C110.902 232.454 111.09 232.862 111.24 233.283C110.951 235.445 110.712 237.624 110.523 239.817C110.466 239.907 110.407 239.996 110.347 240.083C109.538 241.252 108.415 242.167 107.107 242.722C86.0782 251.66 62.1066 240.543 47.8627 231.609C54.4121 258.742 94.7421 278.446 98.5165 280.234C104.11 282.198 109.349 284.258 114.255 286.391C115.982 293.227 118.211 299.863 120.902 306.257C112.956 302.041 103.776 297.982 93.1766 294.281C92.9664 294.204 92.7477 294.118 92.5375 294.023C89.7325 292.741 23.6123 261.988 32.8038 215.465C33.0552 214.18 33.6381 212.983 34.4948 211.993C35.3515 211.003 36.4522 210.254 37.6876 209.821C38.9231 209.387 40.2504 209.284 41.5379 209.522C42.8254 209.76 44.0284 210.33 45.0276 211.176C55.0489 219.355 66.5286 225.562 78.8597 229.469C45.6624 207.882 -11.6867 162.384 5.43526 114.479C5.8713 113.262 6.61425 112.178 7.59216 111.332C8.57007 110.486 9.74983 109.907 11.0172 109.65C12.2846 109.394 13.5967 109.47 14.8264 109.869C16.0561 110.269 17.1618 110.979 18.0365 111.931C26.0734 120.429 34.7249 128.324 43.921 135.551C18.444 100.857 -15.0107 43.3449 7.34389 3.82118C7.96374 2.72451 8.84963 1.80149 9.91994 1.13716C10.9902 0.472826 12.2105 0.0885619 13.4684 0.0197738C14.7262 -0.0490144 15.9812 0.199888 17.1175 0.74354C18.2539 1.28719 19.2352 2.10811 19.9709 3.13065ZM378.872 306.792C387.038 302.389 396.535 298.147 407.569 294.294C407.787 294.216 408.001 294.131 408.213 294.036C411.03 292.75 477.151 262.001 467.959 215.456C467.708 214.171 467.125 212.975 466.268 211.985C465.411 210.994 464.311 210.245 463.075 209.812C461.84 209.378 460.513 209.275 459.225 209.513C457.937 209.751 456.735 210.321 455.735 211.167C445.715 219.347 434.235 225.554 421.903 229.46C455.083 207.882 512.437 162.384 495.315 114.479C494.88 113.261 494.137 112.176 493.159 111.329C492.182 110.482 491.001 109.903 489.734 109.647C488.466 109.39 487.153 109.466 485.923 109.866C484.693 110.266 483.588 110.978 482.714 111.931C474.741 120.415 466.119 128.265 456.928 135.41C482.396 100.698 515.731 43.2891 493.385 3.81261C492.765 2.71594 491.879 1.79291 490.809 1.12858C489.738 0.464253 488.518 0.0799885 487.26 0.0112004C486.002 -0.0575878 484.747 0.191306 483.611 0.734958C482.475 1.27861 481.493 2.09953 480.758 3.12207C446.535 51.2069 404.905 93.5611 357.417 128.607C351.643 132.892 345.224 137.897 338.528 143.538C342.44 146.735 346.176 150.139 349.719 153.734C355.616 148.831 361.264 144.447 366.373 140.655C411.421 107.501 451.298 67.8421 484.699 22.9761C493.423 65.4379 443.64 131.279 421.624 155.079C420.528 156.263 419.842 157.769 419.669 159.374C419.495 160.978 419.844 162.596 420.662 163.986C421.48 165.377 422.725 166.467 424.212 167.095C425.699 167.722 427.348 167.854 428.916 167.47C448.916 162.607 470.871 144.279 483.443 132.429C483.477 181.058 394.084 228.65 393.098 229.164C391.84 229.825 390.796 230.829 390.086 232.06C389.414 233.226 389.068 234.551 389.084 235.894C389.139 236.377 389.192 236.862 389.242 237.347C389.447 238.323 389.844 239.252 390.416 240.079C391.224 241.247 392.348 242.162 393.655 242.718C414.672 251.652 438.635 240.543 452.883 231.618C446.299 258.682 406.012 278.441 402.242 280.234C396.323 282.311 390.801 284.496 385.651 286.76C383.889 293.657 381.615 300.348 378.872 306.792Z" fill="#FF6B6B"/>
<path d="M110.5 285L121 288.5L123 309L122 308L121.75 307.759L121.5 307.519L120.026 306.099L118.5 305L110.5 285Z" fill="#FF6B6B"/>
<path d="M389.906 285.266L380.064 287.955L375.787 309.734L376.805 308.763L377.059 308.53L377.312 308.297L378.806 306.925L380.308 305.901L389.906 285.266Z" fill="#FF6B6B"/>
</g>
<defs>
<clipPath id="clip0_2091_1197">
<rect width="501" height="391" fill="white"/>
</clipPath>
</defs>
</svg>
