<svg width="450" height="450" viewBox="0 0 450 450" fill="none" xmlns="http://www.w3.org/2000/svg">
<path d="M16.9999 358.44C21.2434 358.44 25.3131 356.754 28.3137 353.754C31.3142 350.753 32.9999 346.683 32.9999 342.44V88.9999C32.9999 80.1839 40.1679 72.9999 48.9999 72.9999H302.44C306.683 72.9999 310.753 71.3142 313.754 68.3137C316.754 65.3131 318.44 61.2434 318.44 56.9999C318.44 52.7565 316.754 48.6868 313.754 45.6862C310.753 42.6857 306.683 40.9999 302.44 40.9999H48.9999C22.5359 40.9999 0.999948 62.5359 0.999948 88.9999V342.44C0.999948 346.683 2.68566 350.753 5.68624 353.754C8.68682 356.754 12.7565 358.44 16.9999 358.44ZM449 88.9999C448.973 80.606 446.739 72.3668 442.52 65.1097C438.302 57.8527 432.249 51.8332 424.968 47.6559L444.296 28.3279C445.824 26.852 447.043 25.0865 447.882 23.1344C448.72 21.1824 449.161 19.0828 449.18 16.9584C449.198 14.8339 448.794 12.727 447.989 10.7607C447.185 8.79434 445.997 7.00791 444.494 5.50563C442.992 4.00334 441.206 2.81529 439.239 2.0108C437.273 1.20631 435.166 0.801479 433.042 0.81994C430.917 0.838401 428.818 1.27978 426.865 2.11833C424.913 2.95687 423.148 4.17578 421.672 5.70395L5.70395 421.672C4.17578 423.148 2.95687 424.913 2.11833 426.865C1.27978 428.818 0.838401 430.917 0.81994 433.042C0.801479 435.166 1.20631 437.273 2.0108 439.239C2.81529 441.206 4.00334 442.992 5.50563 444.494C7.00791 445.997 8.79434 447.185 10.7607 447.989C12.727 448.794 14.8339 449.198 16.9584 449.18C19.0828 449.161 21.1824 448.72 23.1344 447.882C25.0865 447.043 26.852 445.824 28.3279 444.296L63.6239 409H401C427.464 409 449 387.464 449 361V88.9999ZM417 361C417 365.243 415.314 369.313 412.314 372.314C409.313 375.314 405.243 377 401 377H95.6239L212.664 259.976L253.672 317.896C255.052 319.859 256.855 321.486 258.949 322.658C261.043 323.829 263.373 324.515 265.768 324.664C270.568 324.856 275.336 323.032 278.6 319.448L327.464 265.432L375.24 331.512C376.469 333.217 378.022 334.662 379.811 335.766C381.6 336.869 383.589 337.608 385.664 337.941C387.739 338.274 389.859 338.194 391.904 337.706C393.948 337.218 395.875 336.331 397.576 335.096C404.728 329.912 406.344 319.896 401.176 312.744L341.816 230.664C340.418 228.731 338.606 227.134 336.512 225.991C334.418 224.849 332.095 224.189 329.713 224.06C327.331 223.931 324.95 224.337 322.745 225.247C320.54 226.157 318.566 227.549 316.968 229.32L268.376 283.16L235.64 237L277.88 194.76C287.432 204.152 300.456 209.8 314.44 209.8C328.226 209.783 341.443 204.299 351.191 194.551C360.939 184.803 366.423 171.586 366.44 157.8C366.44 143.8 360.792 130.792 351.336 121.288L399.624 72.9999H401C409.832 72.9999 417 80.1839 417 88.9999V361ZM328.568 144.072C332.136 147.688 334.44 152.472 334.44 157.8C334.44 168.84 325.48 177.8 314.44 177.8C309.128 177.8 304.312 175.528 300.648 171.992L328.568 144.072Z" fill="black"/>
<path d="M166.056 150.92C163.46 150.956 160.913 151.623 158.633 152.864C156.352 154.104 154.408 155.881 152.968 158.04L100.328 236.92C98.3204 239.988 97.4443 243.66 97.8502 247.304C98.256 250.948 99.9185 254.337 102.552 256.888C103.288 257.624 103.864 258.504 104.76 259.112C106.507 260.284 108.468 261.099 110.532 261.51C112.595 261.92 114.719 261.919 116.781 261.506C118.844 261.092 120.804 260.275 122.55 259.101C124.295 257.927 125.791 256.419 126.952 254.664L167 194.664C169.994 197.13 173.781 198.424 177.658 198.306C181.534 198.188 185.236 196.667 188.075 194.024C190.913 191.381 192.695 187.797 193.089 183.938C193.483 180.08 192.462 176.21 190.216 173.048L188.632 170.808L179.352 157.688C177.846 155.575 175.853 153.856 173.541 152.678C171.229 151.5 168.667 150.897 166.072 150.92H166.056Z" fill="black"/>
</svg>
