<svg width="512" height="434" viewBox="0 0 512 434" fill="none" xmlns="http://www.w3.org/2000/svg">
<path d="M151.95 247.554C159.053 239.406 153.267 226.684 142.457 226.684H110.093C109.878 223.461 109.768 220.231 109.765 217.001C109.765 136.365 175.365 70.7648 256 70.7648C294.75 70.7648 330.022 85.9195 356.216 110.607L401.852 57.2186C361.903 20.6737 310.492 0.65625 256 0.65625C198.212 0.65625 143.884 23.1605 103.022 64.0217C62.1605 104.884 39.6563 159.212 39.6563 217C39.6563 220.24 39.7372 223.467 39.8781 226.683H12.618C1.80844 226.683 -3.97849 239.405 3.12528 247.553L64.6204 318.091L77.537 332.907L123.912 279.712L151.95 247.554ZM508.875 206.399L463.008 153.787L434.463 121.045L393.708 167.793L360.051 206.399C352.949 214.547 358.734 227.269 369.544 227.269H401.87C396.581 303.13 333.182 363.235 256.001 363.235C222.309 363.235 191.246 351.776 166.493 332.559L120.854 385.951C159.088 416.655 206.258 433.344 256.002 433.344C313.789 433.344 368.117 410.841 408.979 369.978C447.412 331.546 469.598 281.2 472.101 227.27H499.383C510.192 227.269 515.978 214.547 508.875 206.399Z" fill="black"/>
</svg>
